<svg xmlns="http://www.w3.org/2000/svg" viewBox="0 0 32 32">
  <defs>
    <linearGradient id="g" x1="0" y1="0" x2="1" y2="1">
      <stop offset="0%" stop-color="#7c3aed"/>
      <stop offset="50%" stop-color="#a855f7"/>
      <stop offset="100%" stop-color="#6366f1"/>
    </linearGradient>
  </defs>
  <rect width="32" height="32" rx="8" fill="url(#g)"/>
  <g fill="white" transform="translate(16,16)">
    <path d="M-2.5-8L-1.2-3.2 0-7 1.2-3.2 2.5-8 3.8-3.8 8-2.5 3.8-1.2 7 0 3.8 1.2 8 2.5 3.8 3.8 2.5 8 1.2 3.8 0 7-1.2 3.8-2.5 8-3.8 3.8-8 2.5-3.8 1.2-7 0-3.8-1.2-8-2.5-3.8-3.8z" transform="scale(1.4)"/>
    <circle cx="7" cy="-9" r="1.2"/>
    <circle cx="-8" cy="8" r="0.8"/>
    <circle cx="9" cy="7" r="0.6"/>
  </g>
</svg>
